HIERARCHY
ROOT root
{
  OFFSET 0 93.2929 0
  CHANNELS 6 Xposition Yposition Zposition Zrotation Xrotation Yrotation
  JOINT torso_1
  {
    OFFSET 0 5.07867 -1.15138
    CHANNELS 6 Xposition Yposition Zposition Zrotation Xrotation Yrotation
    JOINT torso_2
    {
      OFFSET 0 5.61661 1.07143
      CHANNELS 6 Xposition Yposition Zposition Zrotation Xrotation Yrotation
      JOINT torso_3
      {
        OFFSET -1.02604e-17 5.98978 0.11501
        CHANNELS 6 Xposition Yposition Zposition Zrotation Xrotation Yrotation
        JOINT torso_4
        {
          OFFSET -1.10457e-17 6.50583 -0.443523
          CHANNELS 6 Xposition Yposition Zposition Zrotation Xrotation Yrotation
          JOINT torso_5
          {
            OFFSET -1.97295e-17 7.60548 -1.50593
            CHANNELS 6 Xposition Yposition Zposition Zrotation Xrotation Yrotation
            JOINT torso_6
            {
              OFFSET -2.53307e-17 9.49737 -0.914492
              CHANNELS 6 Xposition Yposition Zposition Zrotation Xrotation Yrotation
              JOINT torso_7
              {
                OFFSET -2.90401e-17 10.5513 1.57691
                CHANNELS 6 Xposition Yposition Zposition Zrotation Xrotation Yrotation
                JOINT neck_1
                {
                  OFFSET -1.29193e-17 4.78644 0.715339
                  CHANNELS 6 Xposition Yposition Zposition Zrotation Xrotation Yrotation
                  JOINT neck_2
                  {
                    OFFSET -1.8116e-17 4.82109 0.421791
                    CHANNELS 6 Xposition Yposition Zposition Zrotation Xrotation Yrotation
                    JOINT head
                    {
                      OFFSET -2.00958e-17 4.83041 0.765062
                      CHANNELS 6 Xposition Yposition Zposition Zrotation Xrotation Yrotation
                      End Site
                      {
                        OFFSET 0 0.1 0
                      }
                    }
                  }
                }
                JOINT l_shoulder
                {
                  OFFSET 1.23299 -7.60731 7.53374
                  CHANNELS 6 Xposition Yposition Zposition Zrotation Xrotation Yrotation
                  JOINT l_up_arm
                  {
                    OFFSET 12.9547 3.2495 -3.26872
                    CHANNELS 6 Xposition Yposition Zposition Zrotation Xrotation Yrotation
                    JOINT l_low_arm
                    {
                      OFFSET 29.2081 0.0598081 0.137039
                      CHANNELS 6 Xposition Yposition Zposition Zrotation Xrotation Yrotation
                      JOINT l_hand
                      {
                        OFFSET 24.234 0.0496219 0.113701
                        CHANNELS 6 Xposition Yposition Zposition Zrotation Xrotation Yrotation
                        End Site
                        {
                          OFFSET 0.1 0 0
                        }
                      }
                    }
                  }
                }
                JOINT r_shoulder
                {
                  OFFSET -1.23299 -7.60729 7.53365
                  CHANNELS 6 Xposition Yposition Zposition Zrotation Xrotation Yrotation
                  JOINT r_up_arm
                  {
                    OFFSET -12.9547 3.2495 -3.26872
                    CHANNELS 6 Xposition Yposition Zposition Zrotation Xrotation Yrotation
                    JOINT r_low_arm
                    {
                      OFFSET -29.2081 0.0598081 0.137039
                      CHANNELS 6 Xposition Yposition Zposition Zrotation Xrotation Yrotation
                      JOINT r_hand
                      {
                        OFFSET -24.234 0.0496218 0.113702
                        CHANNELS 6 Xposition Yposition Zposition Zrotation Xrotation Yrotation
                        End Site
                        {
                          OFFSET -0.1 0 0
                        }
                      }
                    }
                  }
                }
              }
            }
          }
        }
      }
    }
  }
  JOINT l_up_leg
  {
    OFFSET 9.23673 -4.20556 2.0327
    CHANNELS 6 Xposition Yposition Zposition Zrotation Xrotation Yrotation
    JOINT l_low_leg
    {
      OFFSET -0.852353 -38.7721 -0.655187
      CHANNELS 6 Xposition Yposition Zposition Zrotation Xrotation Yrotation
      JOINT l_foot
      {
        OFFSET -2.32622 -40.4017 -6.04875
        CHANNELS 6 Xposition Yposition Zposition Zrotation Xrotation Yrotation
        JOINT l_toes
        {
          OFFSET 0.779096 -9.8844 12.4959
          CHANNELS 6 Xposition Yposition Zposition Zrotation Xrotation Yrotation
          End Site
          {
            OFFSET 0 0 0.1
          }
        }
      }
    }
  }
  JOINT r_up_leg
  {
    OFFSET -9.23673 -4.20556 2.0327
    CHANNELS 6 Xposition Yposition Zposition Zrotation Xrotation Yrotation
    JOINT r_low_leg
    {
      OFFSET 0.852353 -38.7721 -0.655187
      CHANNELS 6 Xposition Yposition Zposition Zrotation Xrotation Yrotation
      JOINT r_foot
      {
        OFFSET 2.32622 -40.4017 -6.04875
        CHANNELS 6 Xposition Yposition Zposition Zrotation Xrotation Yrotation
        JOINT r_toes
        {
          OFFSET -0.779096 -9.8844 12.4959
          CHANNELS 6 Xposition Yposition Zposition Zrotation Xrotation Yrotation
          End Site
          {
            OFFSET 0 0 0.1
          }
        }
      }
    }
  }
}
MOTION
Frames: 7
Frame Time: 0.016667
-5.74393 92.1155 76.2587 -8.46595 7.2101 -177.502 0 5.07867 -1.15138 -3.75032 4.45134 -0.195495 0 5.61661 1.07143 -2.88882 3.1779 -0.630699 -1.02604e-17 5.98978 0.11501 -2.18789 2.37475 -0.590052 -1.10457e-17 6.50583 -0.443523 -1.35213 0.639477 -0.658955 -1.97295e-17 7.60548 -1.50593 -0.648202 -0.403695 -0.642869 -2.53307e-17 9.49737 -0.914492 -0.0240044 -1.81328 -0.861416 -2.90401e-17 10.5513 1.57691 0.087717 0.66778 -0.133766 -1.29193e-17 4.78644 0.715339 1.14036 7.64587 -8.78205 -1.8116e-17 4.82109 0.421791 0.840306 -4.09472 -4.23356 -2.00958e-17 4.83041 0.765062 1.80406 -6.66549 2.48283 1.23299 -7.60731 7.53374 20.103 5.64457 -3.16481 12.9547 3.2495 -3.26872 -84.342 50.9051 9.02607 29.2081 0.0598081 0.137039 4.40056 -0.819747 -21.6874 24.234 0.0496219 0.113701 -21.9076 -59.7537 -19.727 -1.23299 -7.60729 7.53365 -20.8229 3.21601 2.15402 -12.9547 3.2495 -3.26872 81.2867 41.2245 -2.9224 -29.2081 0.0598081 0.137039 -3.70779 -0.572672 18.149 -24.234 0.0496218 0.113702 27.8382 -64.8749 20.8346 9.23673 -4.20556 2.0327 -3.67036 3.82907 -16.8009 -0.852353 -38.7721 -0.655187 -0.864962 3.23041 -0.032007 -2.32622 -40.4017 -6.04875 -5.37318 1.14464 15.9825 0.779096 -9.8844 12.4959 3.90953e-16 -7.84026e-16 1.31104e-18 -9.23673 -4.20556 2.0327 -17.7349 -3.30267 7.52088 0.852353 -38.7721 -0.655187 2.51043 9.33482 -0.0416725 2.32622 -40.4017 -6.04875 7.186 -4.62942 -15.7535 -0.779096 -9.8844 12.4959 -5.96354e-16 -5.59082e-16 -1.27471e-14 
-5.73664 92.1146 76.2234 -8.45412 7.19238 -177.515 0 5.07867 -1.15138 -3.7477 4.43445 -0.194011 0 5.61661 1.07143 -2.88657 3.16497 -0.62883 -1.02604e-17 5.98978 0.11501 -2.18567 2.36509 -0.588162 -1.10457e-17 6.50583 -0.443523 -1.35021 0.635415 -0.656888 -1.97295e-17 7.60548 -1.50593 -0.646095 -0.404152 -0.641083 -2.53307e-17 9.49737 -0.914492 -0.0217642 -1.81119 -0.859965 -2.90401e-17 10.5513 1.57691 0.0877167 0.667314 -0.132965 -1.29193e-17 4.78644 0.715339 1.13443 7.60031 -8.79741 -1.8116e-17 4.82109 0.421791 0.850064 -4.1029 -4.24069 -2.00958e-17 4.83041 0.765062 1.84218 -6.66213 2.51108 1.23299 -7.60731 7.53374 20.0693 5.64951 -3.17632 12.9547 3.2495 -3.26872 -84.3464 50.9361 9.07757 29.2081 0.0598081 0.137039 4.40812 -0.822711 -21.7264 24.234 0.0496219 0.113701 -21.9889 -59.819 -19.8108 -1.23299 -7.60729 7.53365 -20.7838 3.22704 2.1726 -12.9547 3.2495 -3.26872 81.2401 41.2238 -2.92132 -29.2081 0.0598081 0.137039 -3.70522 -0.571845 18.136 -24.234 0.0496218 0.113702 27.8811 -64.8962 20.8667 9.23673 -4.20556 2.0327 -3.6573 3.82772 -16.7916 -0.852353 -38.7721 -0.655187 -0.864325 3.22803 -0.0320013 -2.32622 -40.4017 -6.04875 -5.3692 1.12187 15.983 0.779096 -9.8844 12.4959 4.22417e-16 -7.82715e-16 2.88531e-33 -9.23673 -4.20556 2.0327 -17.7218 -3.30983 7.51008 0.852353 -38.7721 -0.655187 2.50278 9.30671 -0.0409234 2.32622 -40.4017 -6.04875 7.20224 -4.63467 -15.7535 -0.779096 -9.8844 12.4959 -5.96354e-16 -5.59082e-16 -1.27471e-14 
-5.72915 92.1144 76.1883 -8.42191 7.1817 -177.536 0 5.07867 -1.15138 -3.73197 4.41371 -0.194645 0 5.61661 1.07143 -2.87262 3.15154 -0.627856 -1.02604e-17 5.98978 0.11501 -2.17392 2.35856 -0.58677 -1.10457e-17 6.50583 -0.443523 -1.34144 0.641121 -0.654935 -1.97295e-17 7.60548 -1.50593 -0.640147 -0.392943 -0.640243 -2.53307e-17 9.49737 -0.914492 -0.0191324 -1.79262 -0.859895 -2.90401e-17 10.5513 1.57691 0.0871385 0.665763 -0.130628 -1.29193e-17 4.78644 0.715339 1.11259 7.5071 -8.78819 -1.8116e-17 4.82109 0.421791 0.851385 -4.12556 -4.23663 -2.00958e-17 4.83041 0.765062 1.86721 -6.63448 2.50546 1.23299 -7.60731 7.53374 19.9971 5.64916 -3.18812 12.9547 3.2495 -3.26872 -84.3552 50.9809 9.08792 29.2081 0.0598081 0.137039 4.41957 -0.827214 -21.7856 24.234 0.0496219 0.113701 -21.9447 -59.9218 -19.7912 -1.23299 -7.60729 7.53365 -20.6567 3.24166 2.21574 -12.9547 3.2495 -3.26872 81.037 41.2521 -2.87576 -29.2081 0.0598081 0.137039 -3.70131 -0.570588 18.1162 -24.234 0.0496218 0.113702 28.0171 -64.9758 21.0076 9.23673 -4.20556 2.0327 -3.62335 3.83648 -16.7786 -0.852353 -38.7721 -0.655187 -0.862878 3.22262 -0.0319885 -2.32622 -40.4017 -6.04875 -5.36214 1.08786 15.9842 0.779096 -9.8844 12.4959 -7.38826e-16 -8.311e-16 4.83851e-17 -9.23673 -4.20556 2.0327 -17.6818 -3.31668 7.52501 0.852353 -38.7721 -0.655187 2.49607 9.2821 -0.0402706 2.32622 -40.4017 -6.04875 7.17248 -4.61061 -15.7516 -0.779096 -9.8844 12.4959 -2.09273e-16 -5.83274e-16 -1.27592e-14 
-5.72306 92.1143 76.1532 -8.41093 7.16715 -177.542 0 5.07867 -1.15138 -3.72007 4.39644 -0.193375 0 5.61661 1.07143 -2.86295 3.13873 -0.62488 -1.02604e-17 5.98978 0.11501 -2.16594 2.35005 -0.583209 -1.10457e-17 6.50583 -0.443523 -1.3359 0.639988 -0.650572 -1.97295e-17 7.60548 -1.50593 -0.635939 -0.390483 -0.636598 -2.53307e-17 9.49737 -0.914492 -0.0160879 -1.78439 -0.856497 -2.90401e-17 10.5513 1.57691 0.0865385 0.665745 -0.128216 -1.29193e-17 4.78644 0.715339 1.09842 7.43255 -8.83856 -1.8116e-17 4.82109 0.421791 0.858802 -4.13622 -4.25948 -2.00958e-17 4.83041 0.765062 1.89152 -6.60969 2.55088 1.23299 -7.60731 7.53374 19.9165 5.65107 -3.20033 12.9547 3.2495 -3.26872 -84.3085 51.0025 9.07862 29.2081 0.0598081 0.137039 4.42335 -0.828701 -21.8051 24.234 0.0496219 0.113701 -21.9804 -59.9498 -19.8262 -1.23299 -7.60729 7.53365 -20.559 3.26281 2.25245 -12.9547 3.2495 -3.26872 80.881 41.3241 -2.86418 -29.2081 0.0598081 0.137039 -3.69489 -0.568526 18.0838 -24.234 0.0496218 0.113702 28.2318 -65.0925 21.2454 9.23673 -4.20556 2.0327 -3.6107 3.83823 -16.7778 -0.852353 -38.7721 -0.655187 -0.86187 3.21886 -0.0319794 -2.32622 -40.4017 -6.04875 -5.35464 1.07074 15.9834 0.779096 -9.8844 12.4959 -3.8321e-16 -8.08218e-16 2.55036e-17 -9.23673 -4.20556 2.0327 -17.6705 -3.32638 7.5201 0.852353 -38.7721 -0.655187 2.49218 9.26779 -0.0398922 2.32622 -40.4017 -6.04875 7.18409 -4.6102 -15.7527 -0.779096 -9.8844 12.4959 -5.85866e-16 -5.59737e-16 -1.27474e-14 
-5.71772 92.1158 76.1184 -8.39395 7.17384 -177.538 0 5.07867 -1.15138 -3.70935 4.39185 -0.190933 0 5.61661 1.07143 -2.85397 3.13414 -0.621147 -1.02604e-17 5.98978 0.11501 -2.15831 2.34624 -0.578878 -1.10457e-17 6.50583 -0.443523 -1.33052 0.636625 -0.64554 -1.97295e-17 7.60548 -1.50593 -0.631347 -0.394264 -0.632351 -2.53307e-17 9.49737 -0.914492 -0.0119816 -1.78528 -0.852848 -2.90401e-17 10.5513 1.57691 0.0860916 0.667144 -0.126421 -1.29193e-17 4.78644 0.715339 1.09389 7.38262 -8.87727 -1.8116e-17 4.82109 0.421791 0.875696 -4.14841 -4.27656 -2.00958e-17 4.83041 0.765062 1.90337 -6.58092 2.56143 1.23299 -7.60731 7.53374 19.8428 5.65284 -3.22246 12.9547 3.2495 -3.26872 -84.2297 51.0437 9.0545 29.2081 0.0598081 0.137039 4.42437 -0.829103 -21.8104 24.234 0.0496219 0.113701 -22.0401 -59.9687 -19.8821 -1.23299 -7.60729 7.53365 -20.4903 3.28162 2.27917 -12.9547 3.2495 -3.26872 80.8083 41.4019 -2.87574 -29.2081 0.0598081 0.137039 -3.68941 -0.566767 18.0561 -24.234 0.0496218 0.113702 28.3731 -65.21 21.4304 9.23673 -4.20556 2.0327 -3.59238 3.86048 -16.783 -0.852353 -38.7721 -0.655187 -0.860866 3.21511 -0.0319703 -2.32622 -40.4017 -6.04875 -5.33354 1.06382 15.9801 0.779096 -9.8844 12.4959 -3.72721e-16 -8.07563e-16 2.48481e-17 -9.23673 -4.20556 2.0327 -17.6467 -3.29382 7.50887 0.852353 -38.7721 -0.655187 2.47933 9.22059 -0.038652 2.32622 -40.4017 -6.04875 7.16005 -4.58387 -15.7511 -0.779096 -9.8844 12.4959 -5.96354e-16 -5.59082e-16 -1.27471e-14 
-5.71219 92.1174 76.0843 -8.37679 7.18111 -177.534 0 5.07867 -1.15138 -3.7038 4.38577 -0.188709 0 5.61661 1.07143 -2.84927 3.12896 -0.617904 -1.02604e-17 5.98978 0.11501 -2.15418 2.34161 -0.575267 -1.10457e-17 6.50583 -0.443523 -1.32746 0.631857 -0.641649 -1.97295e-17 7.60548 -1.50593 -0.628376 -0.398416 -0.628842 -2.53307e-17 9.49737 -0.914492 -0.00905839 -1.78949 -0.850177 -2.90401e-17 10.5513 1.57691 0.0859635 0.668547 -0.125768 -1.29193e-17 4.78644 0.715339 1.09688 7.38238 -8.89943 -1.8116e-17 4.82109 0.421791 0.887338 -4.15211 -4.2865 -2.00958e-17 4.83041 0.765062 1.93211 -6.57784 2.55931 1.23299 -7.60731 7.53374 19.8499 5.65052 -3.2267 12.9547 3.2495 -3.26872 -84.21 51.0881 9.03229 29.2081 0.0598081 0.137039 4.42618 -0.829815 -21.8197 24.234 0.0496219 0.113701 -22.0816 -59.9699 -19.9108 -1.23299 -7.60729 7.53365 -20.4744 3.28855 2.28336 -12.9547 3.2495 -3.26872 80.8419 41.4423 -2.87833 -29.2081 0.0598081 0.137039 -3.68628 -0.565766 18.0403 -24.234 0.0496218 0.113702 28.3535 -65.2719 21.4435 9.23673 -4.20556 2.0327 -3.57231 3.88544 -16.7905 -0.852353 -38.7721 -0.655187 -0.858664 3.20689 -0.0319502 -2.32622 -40.4017 -6.04875 -5.32518 1.05486 15.9783 0.779096 -9.8844 12.4959 1.43598e-17 -7.95466e-16 1.27518e-17 -9.23673 -4.20556 2.0327 -17.6244 -3.2679 7.49779 0.852353 -38.7721 -0.655187 2.46962 9.18494 -0.0377224 2.32622 -40.4017 -6.04875 7.1489 -4.55983 -15.7507 -0.779096 -9.8844 12.4959 -9.83435e-16 -5.46986e-16 -1.27229e-14 
-5.70787 92.1176 76.0504 -8.37031 7.17298 -177.514 0 5.07867 -1.15138 -3.7035 4.39148 -0.191369 0 5.61661 1.07143 -2.84823 3.13021 -0.620539 -1.02604e-17 5.98978 0.11501 -2.15277 2.33659 -0.577979 -1.10457e-17 6.50583 -0.443523 -1.32566 0.616518 -0.644534 -1.97295e-17 7.60548 -1.50593 -0.626567 -0.417749 -0.632176 -2.53307e-17 9.49737 -0.914492 -0.0081535 -1.81603 -0.854034 -2.90401e-17 10.5513 1.57691 0.0860413 0.67073 -0.126082 -1.29193e-17 4.78644 0.715339 1.10636 7.39844 -8.8982 -1.8116e-17 4.82109 0.421791 0.897596 -4.14946 -4.28526 -2.00958e-17 4.83041 0.765062 1.94812 -6.57984 2.54573 1.23299 -7.60731 7.53374 19.9029 5.65841 -3.22826 12.9547 3.2495 -3.26872 -84.2677 51.1386 9.06483 29.2081 0.0598081 0.137039 4.43197 -0.832101 -21.8496 24.234 0.0496219 0.113701 -22.117 -59.9911 -19.9565 -1.23299 -7.60729 7.53365 -20.5326 3.29526 2.27936 -12.9547 3.2495 -3.26872 80.9491 41.4637 -2.89959 -29.2081 0.0598081 0.137039 -3.68733 -0.566103 18.0456 -24.234 0.0496218 0.113702 28.3262 -65.2871 21.428 9.23673 -4.20556 2.0327 -3.56439 3.89443 -16.7994 -0.852353 -38.7721 -0.655187 -0.856564 3.19905 -0.0319307 -2.32622 -40.4017 -6.04875 -5.31685 1.04683 15.9759 0.779096 -9.8844 12.4959 2.48481e-17 -7.95139e-16 1.2424e-17 -9.23673 -4.20556 2.0327 -17.6185 -3.25631 7.4744 0.852353 -38.7721 -0.655187 2.46311 9.16101 -0.0371019 2.32622 -40.4017 -6.04875 7.14756 -4.55099 -15.7489 -0.779096 -9.8844 12.4959 -6.06842e-16 -5.58754e-16 -1.27464e-14 
